<svg xmlns="http://www.w3.org/2000/svg" xmlns:xlink="http://www.w3.org/1999/xlink" aria-hidden="true" role="img" class="iconify iconify--logos" width="35.93" height="32" preserveAspectRatio="xMidYMid meet" viewBox="0 0 256 228"><path fill="#00D8FF" d="M210.483 73.824a171.49 171.49 0 0 0-8.24-2.597c.465-1.9.893-3.777 1.273-5.621c6.238-30.281 2.16-54.676-11.769-62.708c-13.355-7.7-35.196.329-57.254 20.257a171.23 171.23 0 0 0-6.375 5.848a155.866 155.866 0 0 0-4.241-3.917C100.759 3.829 77.587-4.822 63.673 3.233C50.33 10.957 46.379 33.89 51.995 62.588a170.974 170.974 0 0 0 1.892 8.48c-3.28.932-6.445 1.924-9.474 2.98C17.309 83.498 0 98.307 0 113.668c0 15.865 18.582 31.778 46.812 41.427a145.52 145.52 0 0 0 6.921 2.165a167.467 167.467 0 0 0-2.01 9.138c-5.354 28.2-1.173 50.591 12.134 58.266c13.744 7.926 36.812-.22 59.273-19.855a145.567 145.567 0 0 0 5.342-4.923a168.064 168.064 0 0 0 6.92 6.314c21.758 18.722 43.246 26.282 56.54 18.586c13.731-7.949 18.194-32.003 12.4-61.268a145.016 145.016 0 0 0-1.535-6.842c1.62-.48 3.21-.974 4.76-1.488c29.348-9.723 48.443-25.443 48.443-41.52c0-15.417-17.868-30.326-45.517-39.844Zm-20.034-46.794c9.704 5.6 13.298 26.677 7.386 55.381a170.452 170.452 0 0 1-1.066 4.637c-12.384-2.763-25.646-4.758-39.384-5.928a170.707 170.707 0 0 1 7.663-13.151c14.027-20.995 28.125-35.78 33.401-40.939Zm-45.064 6.425c3.853 4.502 16.99 21.883 30.888 43.548a145.248 145.248 0 0 0-19.736 3.352 152.9 152.9 0 0 0-22.48-1.04c10.607-19.577 22.269-35.587 29.328-45.86Zm-78.99 8.195c6.683-9.72 19.62-24.68 35.8-42.63a152.916 152.916 0 0 0-22.2 1.207 170.78 170.78 0 0 0-19.736-3.352c14.21-22.08 27.694-39.747 31.136-44.225Zm-17.75 63.434c13.977-4.64 28.525-8.28 43.231-10.86a145.29 145.29 0 0 0 5.742 17.447 152.9 152.9 0 0 0-4.241 19.736c-15.48 2.552-30.106 6.15-43.732 10.677Zm25.64 74.04c-9.704-5.6-13.298-26.677-7.386-55.381a170.452 170.452 0 0 1 1.066-4.637c12.384 2.763 25.646 4.758 39.384 5.928a170.707 170.707 0 0 1-7.663 13.151c-14.027 20.995-28.125 35.78-33.401 40.939Zm45.064-6.425c-3.853-4.502-16.99-21.883-30.888-43.548a145.248 145.248 0 0 0 19.736-3.352 152.9 152.9 0 0 0 22.48 1.04c-10.607 19.577-22.269 35.587-29.328 45.86Zm78.99-8.195c-6.683 9.72-19.62 24.68-35.8 42.63a152.916 152.916 0 0 0 22.2-1.207 170.78 170.78 0 0 0 19.736 3.352c-14.21 22.08-27.694 39.747-31.136 44.225Zm17.75-63.434c-13.977 4.64-28.525 8.28-43.231 10.86a145.29 145.29 0 0 0-5.742-17.447 152.9 152.9 0 0 0 4.241-19.736c15.48-2.552 30.106-6.15 43.732-10.677Z"></path><circle cx="128" cy="113.668" r="24.5" fill="#00D8FF"></circle></svg>
